<mxfile host="app.diagrams.net" modified="2024-07-12T00:37:11.682Z" agent="Mozilla/5.0 (Windows NT 10.0; Win64; x64) AppleWebKit/537.36 (KHTML, like Gecko) Chrome/126.0.0.0 Safari/537.36" etag="5aYgTPV78AW5P9Jgievp" version="24.6.5" type="device">
  <diagram name="Page-1" id="BGVRmRspeZoaVKn_AvXL">
    <mxGraphModel dx="1626" dy="784" grid="1" gridSize="10" guides="1" tooltips="1" connect="1" arrows="1" fold="1" page="1" pageScale="1" pageWidth="850" pageHeight="1100" math="0" shadow="0">
      <root>
        <mxCell id="0" />
        <mxCell id="1" parent="0" />
        <mxCell id="kqBFWyUOJvrW3eXn2k8_-2" style="edgeStyle=orthogonalEdgeStyle;rounded=0;orthogonalLoop=1;jettySize=auto;html=1;exitX=0.5;exitY=0.5;exitDx=0;exitDy=0;exitPerimeter=0;" edge="1" parent="1" source="kqBFWyUOJvrW3eXn2k8_-1">
          <mxGeometry relative="1" as="geometry">
            <mxPoint x="420" y="460" as="targetPoint" />
          </mxGeometry>
        </mxCell>
        <mxCell id="kqBFWyUOJvrW3eXn2k8_-1" value="Actor" style="shape=umlActor;verticalLabelPosition=bottom;verticalAlign=top;html=1;" vertex="1" parent="1">
          <mxGeometry x="410" y="370" width="20" height="40" as="geometry" />
        </mxCell>
        <mxCell id="kqBFWyUOJvrW3eXn2k8_-3" value="View pet care&lt;div&gt;profile&lt;/div&gt;" style="ellipse;whiteSpace=wrap;html=1;" vertex="1" parent="1">
          <mxGeometry x="365" y="460" width="110" height="50" as="geometry" />
        </mxCell>
        <mxCell id="kqBFWyUOJvrW3eXn2k8_-5" value="display profile" style="ellipse;whiteSpace=wrap;html=1;" vertex="1" parent="1">
          <mxGeometry x="500" y="520" width="110" height="50" as="geometry" />
        </mxCell>
        <mxCell id="kqBFWyUOJvrW3eXn2k8_-6" value="search for pet" style="ellipse;whiteSpace=wrap;html=1;" vertex="1" parent="1">
          <mxGeometry x="620" y="450" width="110" height="50" as="geometry" />
        </mxCell>
        <mxCell id="kqBFWyUOJvrW3eXn2k8_-7" value="" style="endArrow=classic;html=1;rounded=0;exitX=1;exitY=0.5;exitDx=0;exitDy=0;" edge="1" parent="1" source="kqBFWyUOJvrW3eXn2k8_-3" target="kqBFWyUOJvrW3eXn2k8_-5">
          <mxGeometry width="50" height="50" relative="1" as="geometry">
            <mxPoint x="400" y="430" as="sourcePoint" />
            <mxPoint x="450" y="380" as="targetPoint" />
          </mxGeometry>
        </mxCell>
        <mxCell id="kqBFWyUOJvrW3eXn2k8_-8" value="" style="endArrow=classic;html=1;rounded=0;exitX=0.927;exitY=0.2;exitDx=0;exitDy=0;exitPerimeter=0;entryX=0;entryY=0.5;entryDx=0;entryDy=0;" edge="1" parent="1" source="kqBFWyUOJvrW3eXn2k8_-3" target="kqBFWyUOJvrW3eXn2k8_-6">
          <mxGeometry width="50" height="50" relative="1" as="geometry">
            <mxPoint x="485" y="495" as="sourcePoint" />
            <mxPoint x="536" y="534" as="targetPoint" />
          </mxGeometry>
        </mxCell>
      </root>
    </mxGraphModel>
  </diagram>
</mxfile>
